<?xml version="1.0" standalone="no"?>
<!DOCTYPE svg PUBLIC "-//W3C//DTD SVG 1.1//EN" 
  "http://www.w3.org/Graphics/SVG/1.1/DTD/svg11.dtd">
<svg width="1024" height="1024" viewBox="0 0 1024 1024"
     xmlns="http://www.w3.org/2000/svg" version="1.1">
<desc>SOL_Study_broken.blend, (Blender 3.1.2)</desc>
<polygon stroke="black" stroke-width="1" fill="rgb(255, 255, 255)" fill-opacity="0.25" points="863.811,546.780 0.094,546.780 0.094,1023.906 863.811,1023.906 " />
<polygon stroke="black" stroke-width="1" fill="rgb(255, 255, 255)" fill-opacity="0.25" points="0.000,1024.000 0.000,1024.000 0.000,1024.000 0.000,1024.000 " />
<polygon stroke="black" stroke-width="1" fill="rgb(255, 255, 255)" fill-opacity="0.25" points="0.000,1024.000 0.000,1024.000 0.000,1024.000 0.000,1024.000 " />
<polygon stroke="black" stroke-width="1" fill="rgb(255, 255, 255)" fill-opacity="0.25" points="863.811,477.220 863.811,0.094 0.094,0.095 0.094,477.220 " />
<polygon stroke="black" stroke-width="1" fill="rgb(255, 255, 255)" fill-opacity="0.25" points="863.811,546.780 863.811,477.220 0.094,477.220 0.094,546.780 " />
<polygon stroke="black" stroke-width="1" fill="rgb(255, 255, 255)" fill-opacity="0.25" points="0.000,1024.000 0.000,1024.000 0.000,1024.000 0.000,1024.000 " />
<polygon stroke="black" stroke-width="1" fill="rgb(255, 255, 255)" fill-opacity="0.25" points="0.000,1024.000 0.000,1024.000 0.000,1024.000 0.000,1024.000 " />
<polygon stroke="black" stroke-width="1" fill="rgb(255, 255, 255)" fill-opacity="0.25" points="0.000,1024.000 0.000,1024.000 0.000,1024.000 0.000,1024.000 " />
<polygon stroke="black" stroke-width="1" fill="rgb(255, 255, 255)" fill-opacity="0.25" points="0.000,1024.000 0.000,1024.000 0.000,1024.000 0.000,1024.000 " />
<polygon stroke="black" stroke-width="1" fill="rgb(255, 255, 255)" fill-opacity="0.25" points="0.000,1024.000 0.000,1024.000 0.000,1024.000 0.000,1024.000 " />
<polygon stroke="black" stroke-width="1" fill="rgb(255, 255, 255)" fill-opacity="0.25" points="0.000,1024.000 0.000,1024.000 0.000,1024.000 0.000,1024.000 " />
<polygon stroke="black" stroke-width="1" fill="rgb(255, 255, 255)" fill-opacity="0.25" points="0.000,1024.000 0.000,1024.000 0.000,1024.000 0.000,1024.000 " />
<polygon stroke="black" stroke-width="1" fill="rgb(255, 255, 255)" fill-opacity="0.25" points="0.000,1024.000 0.000,1024.000 0.000,1024.000 0.000,1024.000 " />
<polygon stroke="black" stroke-width="1" fill="rgb(255, 255, 255)" fill-opacity="0.25" points="0.000,1024.000 0.000,1024.000 0.000,1024.000 0.000,1024.000 " />
<polygon stroke="black" stroke-width="1" fill="rgb(128, 128, 77)" fill-opacity="0.25" points="36.564,0.019 0.019,0.019 0.020,268.125 36.564,268.125 " />
<polygon stroke="black" stroke-width="1" fill="rgb(128, 128, 77)" fill-opacity="0.25" points="36.564,1023.981 36.564,755.874 0.019,755.874 0.019,1023.981 " />
<polygon stroke="black" stroke-width="1" fill="rgb(128, 128, 77)" fill-opacity="0.25" points="36.564,268.125 0.020,268.125 0.019,755.874 36.564,755.874 " />

</svg>
