<?xml version="1.0" standalone="no"?>
<!DOCTYPE svg PUBLIC "-//W3C//DTD SVG 1.1//EN" 
  "http://www.w3.org/Graphics/SVG/1.1/DTD/svg11.dtd">
<svg width="1024" height="1024" viewBox="0 0 1024 1024"
     xmlns="http://www.w3.org/2000/svg" version="1.1">
<desc>SOL_Study_broken.blend, (Blender 3.1.2)</desc>
<polygon stroke="black" stroke-width="1" fill="rgb(255, 255, 255)" fill-opacity="0.25" points="537.667,560.713 0.074,560.713 0.074,1023.926 537.667,1023.926 " />
<polygon stroke="black" stroke-width="1" fill="rgb(255, 255, 255)" fill-opacity="0.25" points="0.000,1024.000 0.000,1024.000 0.000,1024.000 0.000,1024.000 " />
<polygon stroke="black" stroke-width="1" fill="rgb(255, 255, 255)" fill-opacity="0.25" points="0.000,1024.000 0.000,1024.000 0.000,1024.000 0.000,1024.000 " />
<polygon stroke="black" stroke-width="1" fill="rgb(255, 255, 255)" fill-opacity="0.25" points="537.667,463.287 537.667,0.074 0.074,0.074 0.074,463.287 " />
<polygon stroke="black" stroke-width="1" fill="rgb(255, 255, 255)" fill-opacity="0.25" points="537.667,560.713 537.667,463.287 0.074,463.287 0.074,560.713 " />
<polygon stroke="black" stroke-width="1" fill="rgb(255, 255, 255)" fill-opacity="0.25" points="0.000,1024.000 0.000,1024.000 0.000,1024.000 0.000,1024.000 " />
<polygon stroke="black" stroke-width="1" fill="rgb(255, 255, 255)" fill-opacity="0.25" points="0.000,1024.000 0.000,1024.000 0.000,1024.000 0.000,1024.000 " />
<polygon stroke="black" stroke-width="1" fill="rgb(255, 255, 255)" fill-opacity="0.25" points="0.000,1024.000 0.000,1024.000 0.000,1024.000 0.000,1024.000 " />
<polygon stroke="black" stroke-width="1" fill="rgb(255, 255, 255)" fill-opacity="0.25" points="0.000,1024.000 0.000,1024.000 0.000,1024.000 0.000,1024.000 " />
<polygon stroke="black" stroke-width="1" fill="rgb(255, 255, 255)" fill-opacity="0.25" points="0.000,1024.000 0.000,1024.000 0.000,1024.000 0.000,1024.000 " />
<polygon stroke="black" stroke-width="1" fill="rgb(255, 255, 255)" fill-opacity="0.25" points="0.000,1024.000 0.000,1024.000 0.000,1024.000 0.000,1024.000 " />
<polygon stroke="black" stroke-width="1" fill="rgb(255, 255, 255)" fill-opacity="0.25" points="0.000,1024.000 0.000,1024.000 0.000,1024.000 0.000,1024.000 " />
<polygon stroke="black" stroke-width="1" fill="rgb(255, 255, 255)" fill-opacity="0.25" points="0.000,1024.000 0.000,1024.000 0.000,1024.000 0.000,1024.000 " />
<polygon stroke="black" stroke-width="1" fill="rgb(255, 255, 255)" fill-opacity="0.25" points="0.000,1024.000 0.000,1024.000 0.000,1024.000 0.000,1024.000 " />
<polygon stroke="black" stroke-width="1" fill="rgb(128, 128, 77)" fill-opacity="0.25" points="0.026,1023.974 65.815,1023.974 65.815,700.148 0.026,700.148 " />
<polygon stroke="black" stroke-width="1" fill="rgb(128, 128, 77)" fill-opacity="0.25" points="0.026,0.026 0.026,323.852 65.815,323.852 65.815,0.026 " />
<polygon stroke="black" stroke-width="1" fill="rgb(128, 128, 77)" fill-opacity="0.25" points="0.026,700.148 65.815,700.148 65.815,323.852 0.026,323.852 " />

</svg>
